<mxfile host="Electron" modified="2023-10-31T05:56:21.694Z" agent="Mozilla/5.0 (Windows NT 10.0; Win64; x64) AppleWebKit/537.36 (KHTML, like Gecko) draw.io/22.0.2 Chrome/114.0.5735.289 Electron/25.8.4 Safari/537.36" etag="N2n82JZxC6TAtAfmemE4" version="22.0.2" type="device" pages="2">
  <diagram id="oY38kdm5o83EHuReV2T8" name="/:id/members">
    <mxGraphModel dx="794" dy="1727" grid="1" gridSize="10" guides="1" tooltips="1" connect="1" arrows="1" fold="1" page="0" pageScale="1" pageWidth="850" pageHeight="1100" math="0" shadow="0">
      <root>
        <mxCell id="0" />
        <mxCell id="1" parent="0" />
        <mxCell id="sdEwPJp4zkoKklKMmfEP-1" style="edgeStyle=none;curved=1;rounded=0;orthogonalLoop=1;jettySize=auto;html=1;fontSize=12;startSize=8;endSize=8;fontFamily=Helvetica;" parent="1" source="sdEwPJp4zkoKklKMmfEP-2" edge="1">
          <mxGeometry relative="1" as="geometry">
            <mxPoint x="260" y="-920" as="targetPoint" />
          </mxGeometry>
        </mxCell>
        <mxCell id="sdEwPJp4zkoKklKMmfEP-2" value="Client" style="rounded=0;whiteSpace=wrap;html=1;fontFamily=Helvetica;" parent="1" vertex="1">
          <mxGeometry x="200" y="-1200" width="120" height="40" as="geometry" />
        </mxCell>
        <mxCell id="sdEwPJp4zkoKklKMmfEP-3" style="edgeStyle=none;curved=1;rounded=0;orthogonalLoop=1;jettySize=auto;html=1;fontSize=12;startSize=8;endSize=8;fontFamily=Helvetica;" parent="1" source="sdEwPJp4zkoKklKMmfEP-4" edge="1">
          <mxGeometry relative="1" as="geometry">
            <mxPoint x="500" y="-920" as="targetPoint" />
          </mxGeometry>
        </mxCell>
        <mxCell id="sdEwPJp4zkoKklKMmfEP-4" value="Project" style="rounded=0;whiteSpace=wrap;html=1;fontFamily=Helvetica;" parent="1" vertex="1">
          <mxGeometry x="440" y="-1200" width="120" height="40" as="geometry" />
        </mxCell>
        <mxCell id="sdEwPJp4zkoKklKMmfEP-6" style="edgeStyle=none;curved=1;rounded=0;orthogonalLoop=1;jettySize=auto;html=1;exitX=1;exitY=1;exitDx=0;exitDy=0;entryX=0;entryY=0;entryDx=0;entryDy=0;fontSize=12;startSize=8;endSize=8;fontFamily=Helvetica;" parent="1" source="smrDSZM0pcQOYa3LXeEk-6" target="LEW-G3g9cezNZrhg7D1--1" edge="1">
          <mxGeometry relative="1" as="geometry">
            <mxPoint x="180" y="-1110" as="sourcePoint" />
            <mxPoint x="445" y="-1109.25" as="targetPoint" />
          </mxGeometry>
        </mxCell>
        <mxCell id="LEW-G3g9cezNZrhg7D1--3" value="" style="group" parent="1" vertex="1" connectable="0">
          <mxGeometry x="490" y="-1110" width="200" height="20" as="geometry" />
        </mxCell>
        <mxCell id="LEW-G3g9cezNZrhg7D1--1" value="2" style="rounded=0;whiteSpace=wrap;html=1;fontSize=16;fontFamily=Helvetica;verticalAlign=middle;" parent="LEW-G3g9cezNZrhg7D1--3" vertex="1">
          <mxGeometry width="20" height="20" as="geometry" />
        </mxCell>
        <mxCell id="LEW-G3g9cezNZrhg7D1--2" value="Check if member already exists" style="text;html=1;fillColor=none;align=left;verticalAlign=middle;whiteSpace=wrap;rounded=0;fontSize=12;fontFamily=Helvetica;spacingLeft=4;" parent="LEW-G3g9cezNZrhg7D1--3" vertex="1">
          <mxGeometry x="20" width="180" height="20" as="geometry" />
        </mxCell>
        <mxCell id="_HuFlXUU0kpVzrusB87L-2" value="" style="group" parent="1" vertex="1" connectable="0">
          <mxGeometry x="490" y="-1080" width="200" height="30" as="geometry" />
        </mxCell>
        <mxCell id="_HuFlXUU0kpVzrusB87L-3" value="3" style="rounded=0;whiteSpace=wrap;html=1;fontSize=16;fontFamily=Helvetica;verticalAlign=middle;" parent="_HuFlXUU0kpVzrusB87L-2" vertex="1">
          <mxGeometry width="20" height="30" as="geometry" />
        </mxCell>
        <mxCell id="_HuFlXUU0kpVzrusB87L-4" value="Check if already user workspce member" style="text;html=1;fillColor=none;align=left;verticalAlign=middle;whiteSpace=wrap;rounded=0;fontSize=12;fontFamily=Helvetica;spacingLeft=4;" parent="_HuFlXUU0kpVzrusB87L-2" vertex="1">
          <mxGeometry x="20" width="180" height="30" as="geometry" />
        </mxCell>
        <mxCell id="pE08uwisndCaNIAwmxLj-1" value="" style="group" parent="1" vertex="1" connectable="0">
          <mxGeometry x="490" y="-1040" width="200" height="20" as="geometry" />
        </mxCell>
        <mxCell id="pE08uwisndCaNIAwmxLj-2" value="4" style="rounded=0;whiteSpace=wrap;html=1;fontSize=16;fontFamily=Helvetica;verticalAlign=middle;" parent="pE08uwisndCaNIAwmxLj-1" vertex="1">
          <mxGeometry width="20" height="20" as="geometry" />
        </mxCell>
        <mxCell id="pE08uwisndCaNIAwmxLj-3" value="Create project members" style="text;html=1;fillColor=none;align=left;verticalAlign=middle;whiteSpace=wrap;rounded=0;fontSize=12;fontFamily=Helvetica;spacingLeft=4;" parent="pE08uwisndCaNIAwmxLj-1" vertex="1">
          <mxGeometry x="20" width="180" height="20" as="geometry" />
        </mxCell>
        <mxCell id="pE08uwisndCaNIAwmxLj-4" value="" style="group" parent="1" vertex="1" connectable="0">
          <mxGeometry x="490" y="-1010" width="200" height="20" as="geometry" />
        </mxCell>
        <mxCell id="pE08uwisndCaNIAwmxLj-5" value="5" style="rounded=0;whiteSpace=wrap;html=1;fontSize=16;fontFamily=Helvetica;verticalAlign=middle;" parent="pE08uwisndCaNIAwmxLj-4" vertex="1">
          <mxGeometry width="20" height="20" as="geometry" />
        </mxCell>
        <mxCell id="pE08uwisndCaNIAwmxLj-6" value="Create policies based on role" style="text;html=1;fillColor=none;align=left;verticalAlign=middle;whiteSpace=wrap;rounded=0;fontSize=12;fontFamily=Helvetica;spacingLeft=4;" parent="pE08uwisndCaNIAwmxLj-4" vertex="1">
          <mxGeometry x="20" width="180" height="20" as="geometry" />
        </mxCell>
        <mxCell id="mDm4JhoA9aGZH-N1UiIz-1" value="" style="group" parent="1" vertex="1" connectable="0">
          <mxGeometry x="170" y="-1140" width="107" height="30" as="geometry" />
        </mxCell>
        <mxCell id="smrDSZM0pcQOYa3LXeEk-5" value="userId, role" style="text;html=1;fillColor=none;align=right;verticalAlign=middle;whiteSpace=wrap;rounded=0;fontSize=12;fontFamily=Helvetica;spacingLeft=4;spacingRight=4;" parent="mDm4JhoA9aGZH-N1UiIz-1" vertex="1">
          <mxGeometry width="77" height="30" as="geometry" />
        </mxCell>
        <mxCell id="smrDSZM0pcQOYa3LXeEk-6" value="1" style="rounded=0;whiteSpace=wrap;html=1;fontSize=16;container=0;fontFamily=Helvetica;verticalAlign=middle;" parent="mDm4JhoA9aGZH-N1UiIz-1" vertex="1">
          <mxGeometry x="77" width="30" height="30" as="geometry" />
        </mxCell>
        <mxCell id="1z5MWBaqaVlg_9H_56OE-3" value="" style="edgeStyle=none;curved=1;rounded=0;orthogonalLoop=1;jettySize=auto;html=1;fontSize=12;startSize=8;endSize=8;" parent="mDm4JhoA9aGZH-N1UiIz-1" source="smrDSZM0pcQOYa3LXeEk-6" target="smrDSZM0pcQOYa3LXeEk-5" edge="1">
          <mxGeometry relative="1" as="geometry" />
        </mxCell>
        <mxCell id="1z5MWBaqaVlg_9H_56OE-4" value="" style="edgeStyle=none;curved=1;rounded=0;orthogonalLoop=1;jettySize=auto;html=1;fontSize=12;startSize=8;endSize=8;" parent="mDm4JhoA9aGZH-N1UiIz-1" source="smrDSZM0pcQOYa3LXeEk-6" target="smrDSZM0pcQOYa3LXeEk-5" edge="1">
          <mxGeometry relative="1" as="geometry" />
        </mxCell>
      </root>
    </mxGraphModel>
  </diagram>
  <diagram id="T1pzw05JD0ZmWtO84Aos" name="/:id/members/invite">
    <mxGraphModel dx="912" dy="1540" grid="1" gridSize="10" guides="1" tooltips="1" connect="1" arrows="1" fold="1" page="0" pageScale="1" pageWidth="827" pageHeight="1169" math="0" shadow="0">
      <root>
        <mxCell id="0" />
        <mxCell id="1" parent="0" />
        <mxCell id="A0mP2CyW2oMfTF2Bx58C-1" style="edgeStyle=none;curved=1;rounded=0;orthogonalLoop=1;jettySize=auto;html=1;fontSize=12;startSize=8;endSize=8;fontFamily=Helvetica;" edge="1" parent="1" source="A0mP2CyW2oMfTF2Bx58C-2">
          <mxGeometry relative="1" as="geometry">
            <mxPoint x="-30" y="-920" as="targetPoint" />
          </mxGeometry>
        </mxCell>
        <mxCell id="A0mP2CyW2oMfTF2Bx58C-2" value="Client" style="rounded=0;whiteSpace=wrap;html=1;fontFamily=Helvetica;" vertex="1" parent="1">
          <mxGeometry x="-90" y="-1200" width="120" height="40" as="geometry" />
        </mxCell>
        <mxCell id="A0mP2CyW2oMfTF2Bx58C-3" style="edgeStyle=none;curved=1;rounded=0;orthogonalLoop=1;jettySize=auto;html=1;fontSize=12;startSize=8;endSize=8;fontFamily=Helvetica;" edge="1" parent="1" source="A0mP2CyW2oMfTF2Bx58C-4">
          <mxGeometry relative="1" as="geometry">
            <mxPoint x="210" y="-920" as="targetPoint" />
          </mxGeometry>
        </mxCell>
        <mxCell id="A0mP2CyW2oMfTF2Bx58C-4" value="Project" style="rounded=0;whiteSpace=wrap;html=1;fontFamily=Helvetica;" vertex="1" parent="1">
          <mxGeometry x="150" y="-1200" width="120" height="40" as="geometry" />
        </mxCell>
        <mxCell id="A0mP2CyW2oMfTF2Bx58C-5" style="edgeStyle=none;curved=1;rounded=0;orthogonalLoop=1;jettySize=auto;html=1;exitX=1;exitY=1;exitDx=0;exitDy=0;entryX=0;entryY=0;entryDx=0;entryDy=0;fontSize=12;startSize=8;endSize=8;fontFamily=Helvetica;" edge="1" parent="1" source="A0mP2CyW2oMfTF2Bx58C-20" target="A0mP2CyW2oMfTF2Bx58C-7">
          <mxGeometry relative="1" as="geometry">
            <mxPoint x="-110" y="-1110" as="sourcePoint" />
            <mxPoint x="155" y="-1109.25" as="targetPoint" />
          </mxGeometry>
        </mxCell>
        <mxCell id="A0mP2CyW2oMfTF2Bx58C-6" value="" style="group" vertex="1" connectable="0" parent="1">
          <mxGeometry x="200" y="-1110" width="200" height="20" as="geometry" />
        </mxCell>
        <mxCell id="A0mP2CyW2oMfTF2Bx58C-7" value="2" style="rounded=0;whiteSpace=wrap;html=1;fontSize=16;fontFamily=Helvetica;verticalAlign=middle;" vertex="1" parent="A0mP2CyW2oMfTF2Bx58C-6">
          <mxGeometry width="20" height="20" as="geometry" />
        </mxCell>
        <mxCell id="A0mP2CyW2oMfTF2Bx58C-8" value="Check if member already exists" style="text;html=1;fillColor=none;align=left;verticalAlign=middle;whiteSpace=wrap;rounded=0;fontSize=12;fontFamily=Helvetica;spacingLeft=4;" vertex="1" parent="A0mP2CyW2oMfTF2Bx58C-6">
          <mxGeometry x="20" width="180" height="20" as="geometry" />
        </mxCell>
        <mxCell id="A0mP2CyW2oMfTF2Bx58C-9" value="" style="group" vertex="1" connectable="0" parent="1">
          <mxGeometry x="200" y="-1080" width="200" height="30" as="geometry" />
        </mxCell>
        <mxCell id="A0mP2CyW2oMfTF2Bx58C-10" value="3" style="rounded=0;whiteSpace=wrap;html=1;fontSize=16;fontFamily=Helvetica;verticalAlign=middle;" vertex="1" parent="A0mP2CyW2oMfTF2Bx58C-9">
          <mxGeometry width="20" height="30" as="geometry" />
        </mxCell>
        <mxCell id="A0mP2CyW2oMfTF2Bx58C-11" value="Check if already user workspce member" style="text;html=1;fillColor=none;align=left;verticalAlign=middle;whiteSpace=wrap;rounded=0;fontSize=12;fontFamily=Helvetica;spacingLeft=4;" vertex="1" parent="A0mP2CyW2oMfTF2Bx58C-9">
          <mxGeometry x="20" width="180" height="30" as="geometry" />
        </mxCell>
        <mxCell id="A0mP2CyW2oMfTF2Bx58C-12" value="" style="group" vertex="1" connectable="0" parent="1">
          <mxGeometry x="200" y="-1040" width="200" height="30" as="geometry" />
        </mxCell>
        <mxCell id="A0mP2CyW2oMfTF2Bx58C-13" value="4" style="rounded=0;whiteSpace=wrap;html=1;fontSize=16;fontFamily=Helvetica;verticalAlign=middle;" vertex="1" parent="A0mP2CyW2oMfTF2Bx58C-12">
          <mxGeometry width="20" height="30" as="geometry" />
        </mxCell>
        <mxCell id="A0mP2CyW2oMfTF2Bx58C-14" value="Create project members with status pending" style="text;html=1;fillColor=none;align=left;verticalAlign=middle;whiteSpace=wrap;rounded=0;fontSize=12;fontFamily=Helvetica;spacingLeft=4;" vertex="1" parent="A0mP2CyW2oMfTF2Bx58C-12">
          <mxGeometry x="20" width="180" height="30" as="geometry" />
        </mxCell>
        <mxCell id="A0mP2CyW2oMfTF2Bx58C-15" value="" style="group" vertex="1" connectable="0" parent="1">
          <mxGeometry x="200" y="-1000" width="200" height="20" as="geometry" />
        </mxCell>
        <mxCell id="A0mP2CyW2oMfTF2Bx58C-16" value="5" style="rounded=0;whiteSpace=wrap;html=1;fontSize=16;fontFamily=Helvetica;verticalAlign=middle;" vertex="1" parent="A0mP2CyW2oMfTF2Bx58C-15">
          <mxGeometry width="20" height="20" as="geometry" />
        </mxCell>
        <mxCell id="A0mP2CyW2oMfTF2Bx58C-17" value="Create policies based on role" style="text;html=1;fillColor=none;align=left;verticalAlign=middle;whiteSpace=wrap;rounded=0;fontSize=12;fontFamily=Helvetica;spacingLeft=4;" vertex="1" parent="A0mP2CyW2oMfTF2Bx58C-15">
          <mxGeometry x="20" width="180" height="20" as="geometry" />
        </mxCell>
        <mxCell id="A0mP2CyW2oMfTF2Bx58C-23" value="" style="group" vertex="1" connectable="0" parent="1">
          <mxGeometry x="-117" y="-1130" width="97" height="20" as="geometry" />
        </mxCell>
        <mxCell id="A0mP2CyW2oMfTF2Bx58C-19" value="userId, role" style="text;html=1;fillColor=none;align=right;verticalAlign=middle;whiteSpace=wrap;rounded=0;fontSize=12;fontFamily=Helvetica;spacingLeft=4;spacingRight=4;" vertex="1" parent="A0mP2CyW2oMfTF2Bx58C-23">
          <mxGeometry width="77" height="20" as="geometry" />
        </mxCell>
        <mxCell id="A0mP2CyW2oMfTF2Bx58C-20" value="1" style="rounded=0;whiteSpace=wrap;html=1;fontSize=16;container=0;fontFamily=Helvetica;verticalAlign=middle;" vertex="1" parent="A0mP2CyW2oMfTF2Bx58C-23">
          <mxGeometry x="77" width="20" height="20" as="geometry" />
        </mxCell>
        <mxCell id="A0mP2CyW2oMfTF2Bx58C-27" value="6" style="rounded=0;whiteSpace=wrap;html=1;fontSize=16;fontFamily=Helvetica;verticalAlign=middle;" vertex="1" parent="1">
          <mxGeometry x="200" y="-970" width="20" height="20" as="geometry" />
        </mxCell>
        <mxCell id="A0mP2CyW2oMfTF2Bx58C-28" value="project.member-created" style="text;html=1;fillColor=#008a00;align=left;verticalAlign=middle;whiteSpace=wrap;rounded=0;fontSize=12;fontFamily=Helvetica;spacingLeft=4;fontColor=#ffffff;strokeColor=#005700;" vertex="1" parent="1">
          <mxGeometry x="220" y="-970" width="140" height="20" as="geometry" />
        </mxCell>
      </root>
    </mxGraphModel>
  </diagram>
</mxfile>
